<svg xmlns="http://www.w3.org/2000/svg" width="117" height="37" fill="none"><path fill="#FF4D00" d="M.24 28 11.68 0h4.84l11.4 28h-6.08l-1.92-5.32H8.24L6.32 28H.24Zm12.84-17.8-3 7.64h8l-3-7.64a29.469 29.469 0 0 1-1-3.2 21.434 21.434 0 0 1-1 3.2Zm25.03 26.32c-2.106 0-3.986-.293-5.64-.88-1.626-.56-3.066-1.573-4.32-3.04l3.36-3.96c.987 1.12 2.014 1.88 3.08 2.28 1.067.4 2.254.6 3.56.6.96 0 1.854-.24 2.68-.72.827-.48 1.48-1.16 1.96-2.04.507-.853.76-1.827.76-2.92v-.92a6.449 6.449 0 0 1-2.32 2.32c-.96.587-2.28.88-3.96.88-1.893 0-3.613-.48-5.16-1.44-1.52-.96-2.72-2.24-3.6-3.84-.88-1.627-1.32-3.44-1.32-5.44 0-2 .44-3.813 1.32-5.44.88-1.627 2.08-2.907 3.6-3.84 1.547-.96 3.267-1.44 5.16-1.44 1.734 0 3.08.307 4.04.92a6.57 6.57 0 0 1 2.32 2.44V7.2h5.32v18.96c0 2.133-.466 3.973-1.4 5.52-.906 1.547-2.173 2.733-3.8 3.56-1.626.853-3.506 1.28-5.64 1.28Zm.04-13.32c1.787 0 3.174-.56 4.16-1.68.987-1.12 1.48-2.493 1.48-4.12 0-1.627-.493-3-1.48-4.12-.986-1.12-2.373-1.68-4.16-1.68-1.76 0-3.133.56-4.12 1.68-.96 1.12-1.44 2.493-1.44 4.12 0 1.04.214 2 .64 2.88a5.45 5.45 0 0 0 1.92 2.12c.827.533 1.827.8 3 .8Zm23.941 5.32c-2.133 0-4.013-.493-5.64-1.48-1.626-.987-2.893-2.293-3.8-3.92-.88-1.653-1.32-3.48-1.32-5.48 0-2 .467-3.827 1.4-5.48.934-1.68 2.2-3.013 3.8-4 1.627-.987 3.48-1.48 5.56-1.48 2.08 0 3.907.493 5.48 1.48 1.6.987 2.84 2.32 3.72 4 .907 1.653 1.36 3.48 1.36 5.48 0 .293-.013.6-.04.92-.026.32-.066.653-.12 1h-15.56c.294 1.227.88 2.227 1.76 3 .907.773 2.04 1.16 3.4 1.16 1.174 0 2.187-.267 3.04-.8.88-.533 1.56-1.2 2.04-2l4.2 3.16c-.826 1.307-2.066 2.373-3.72 3.2-1.653.827-3.506 1.24-5.56 1.24Zm-.08-17.2c-1.28 0-2.373.387-3.28 1.16-.906.773-1.506 1.787-1.8 3.04h10.28c-.293-1.147-.906-2.133-1.84-2.96-.906-.827-2.026-1.24-3.36-1.24ZM75.021 28V7.2h5.24v3.96c.348-1.493 1.054-2.627 2.12-3.4 1.067-.8 2.507-1.147 4.32-1.04v5.08h-.76c-1.546 0-2.853.493-3.92 1.48-1.066.987-1.6 2.347-1.6 4.08V28h-5.4Zm22.742.52c-2.134 0-4.04-.493-5.72-1.48-1.68-.987-3-2.293-3.96-3.92-.933-1.653-1.4-3.48-1.4-5.48 0-2 .466-3.827 1.4-5.48.96-1.653 2.28-2.973 3.96-3.96 1.68-.987 3.586-1.48 5.72-1.48 2.16 0 4.066.493 5.72 1.48 1.68.987 2.986 2.307 3.92 3.96.96 1.653 1.44 3.48 1.44 5.48 0 2-.48 3.827-1.44 5.48-.934 1.627-2.24 2.933-3.92 3.92-1.654.987-3.56 1.48-5.72 1.48Zm0-4.92c1.146 0 2.146-.267 3-.8a5.574 5.574 0 0 0 1.96-2.2c.48-.907.72-1.893.72-2.96 0-1.093-.24-2.093-.72-3a5.292 5.292 0 0 0-1.96-2.16c-.854-.56-1.854-.84-3-.84-1.147 0-2.147.28-3 .84a5.574 5.574 0 0 0-2 2.16c-.454.907-.68 1.907-.68 3a6.53 6.53 0 0 0 .68 2.96 5.88 5.88 0 0 0 2 2.2c.853.533 1.853.8 3 .8Zm15.569 4.92c-1.04 0-1.907-.347-2.6-1.04-.667-.693-1-1.52-1-2.48 0-.933.333-1.747 1-2.44.693-.693 1.56-1.04 2.6-1.04s1.893.347 2.56 1.04c.666.693 1 1.507 1 2.44 0 .96-.334 1.787-1 2.48-.667.693-1.52 1.04-2.56 1.04Z"/></svg>